<?xml version="1.0" encoding="UTF-8"?>
<svg xmlns="http://www.w3.org/2000/svg" xmlns:xlink="http://www.w3.org/1999/xlink" width="192px" height="192px" viewBox="0 0 192 192" version="1.1">
<g id="surface1">
<path style=" stroke:none;fill-rule:nonzero;fill:rgb(15.294118%,67.450982%,45.09804%);fill-opacity:1;" d="M 114.355469 114.28125 L 78.488281 114.28125 C 66.789062 114.28125 57.320312 104.792969 57.320312 93.113281 L 57.320312 58.574219 C 57.320312 46.875 66.804688 37.40625 78.488281 37.40625 L 114.375 37.40625 C 126.074219 37.40625 135.542969 46.894531 135.542969 58.574219 L 135.542969 93.113281 C 135.542969 104.792969 126.054688 114.28125 114.355469 114.28125 Z M 114.355469 114.28125 "/>
<path style=" stroke:none;fill-rule:nonzero;fill:rgb(22.745098%,21.960784%,26.666668%);fill-opacity:1;" d="M 80.664062 140.4375 C 80.664062 138.1875 80.679688 135.9375 80.644531 133.6875 C 80.625 132.863281 81 132.542969 81.769531 132.601562 C 82.632812 132.65625 83.492188 132.601562 84.355469 132.617188 C 84.9375 132.636719 85.03125 132.710938 85.03125 133.273438 C 85.050781 133.613281 85.03125 133.96875 85.03125 134.304688 C 85.03125 134.457031 85.085938 134.492188 85.199219 134.382812 C 85.386719 134.195312 85.59375 134.007812 85.78125 133.800781 C 87.5625 131.90625 90.84375 131.980469 92.511719 132.769531 C 93.167969 133.085938 93.710938 133.519531 94.179688 134.0625 C 94.648438 134.605469 94.667969 134.605469 95.15625 134.101562 C 95.960938 133.257812 96.917969 132.65625 98.101562 132.414062 C 99.675781 132.09375 101.25 132.113281 102.769531 132.695312 C 104.4375 133.351562 105.1875 134.71875 105.582031 136.292969 C 105.710938 136.820312 105.769531 137.382812 105.769531 137.945312 C 105.789062 141.054688 105.789062 144.1875 105.769531 147.300781 C 105.769531 148.21875 105.617188 148.367188 104.664062 148.367188 C 103.914062 148.367188 103.164062 148.367188 102.414062 148.367188 C 101.492188 148.367188 101.25 148.144531 101.25 147.226562 C 101.25 145.59375 101.25 143.945312 101.25 142.3125 C 101.25 140.980469 101.269531 139.667969 101.230469 138.335938 C 101.195312 137.023438 100.425781 136.085938 99.226562 135.824219 C 97.40625 135.429688 95.71875 136.574219 95.53125 138.355469 C 95.492188 138.730469 95.492188 139.085938 95.492188 139.460938 C 95.492188 141.992188 95.492188 144.542969 95.492188 147.074219 C 95.492188 147.261719 95.511719 147.449219 95.476562 147.636719 C 95.398438 148.105469 95.136719 148.351562 94.632812 148.351562 C 93.65625 148.367188 92.679688 148.367188 91.707031 148.351562 C 91.238281 148.332031 90.9375 148.070312 90.863281 147.636719 C 90.824219 147.429688 90.84375 147.207031 90.84375 147 C 90.84375 144.375 90.84375 141.769531 90.824219 139.144531 C 90.824219 138.617188 90.789062 138.074219 90.65625 137.585938 C 90.226562 135.957031 88.988281 135.582031 87.523438 135.863281 C 86.304688 136.105469 85.460938 137.042969 85.3125 138.242188 C 85.273438 138.523438 85.273438 138.824219 85.273438 139.105469 C 85.273438 141.75 85.273438 144.394531 85.273438 147.039062 C 85.273438 147.242188 85.273438 147.46875 85.238281 147.675781 C 85.144531 148.105469 84.898438 148.332031 84.449219 148.351562 C 83.476562 148.367188 82.5 148.367188 81.523438 148.351562 C 80.90625 148.332031 80.664062 148.03125 80.664062 147.335938 C 80.664062 145.539062 80.664062 143.738281 80.664062 141.9375 C 80.664062 141.449219 80.664062 140.945312 80.664062 140.4375 Z M 80.664062 140.4375 "/>
<path style=" stroke:none;fill-rule:nonzero;fill:rgb(22.745098%,21.960784%,26.666668%);fill-opacity:1;" d="M 39.804688 137.867188 C 39.804688 134.773438 39.804688 131.679688 39.804688 128.585938 C 39.804688 128.398438 39.789062 128.210938 39.824219 128.023438 C 39.882812 127.59375 40.050781 127.386719 40.5 127.386719 C 41.53125 127.367188 42.5625 127.367188 43.59375 127.386719 C 44.101562 127.40625 44.34375 127.632812 44.363281 128.136719 C 44.398438 128.71875 44.363281 129.300781 44.363281 129.882812 C 44.363281 131.625 44.363281 133.367188 44.363281 135.113281 C 44.363281 135.617188 44.363281 135.636719 44.925781 135.617188 C 47.550781 135.617188 50.15625 135.617188 52.78125 135.617188 C 53.324219 135.617188 53.34375 135.601562 53.34375 135.039062 C 53.34375 132.992188 53.34375 130.96875 53.34375 128.925781 C 53.34375 128.738281 53.34375 128.550781 53.34375 128.363281 C 53.382812 127.554688 53.550781 127.367188 54.394531 127.367188 C 55.238281 127.367188 56.0625 127.367188 56.90625 127.367188 C 57.769531 127.367188 57.957031 127.554688 57.957031 128.417969 C 57.957031 132.300781 57.957031 136.199219 57.957031 140.082031 C 57.957031 142.460938 57.9375 144.84375 57.976562 147.226562 C 57.992188 148.050781 57.617188 148.40625 56.792969 148.351562 C 56.023438 148.292969 55.238281 148.292969 54.449219 148.351562 C 53.679688 148.40625 53.324219 147.976562 53.34375 147.242188 C 53.398438 144.917969 53.363281 142.59375 53.363281 140.269531 C 53.363281 139.480469 53.363281 139.480469 52.519531 139.480469 C 50.042969 139.480469 47.550781 139.480469 45.074219 139.480469 C 44.304688 139.480469 44.398438 139.445312 44.398438 140.101562 C 44.398438 142.425781 44.398438 144.75 44.398438 147.074219 C 44.398438 147.28125 44.417969 147.507812 44.382812 147.710938 C 44.304688 148.085938 44.042969 148.332031 43.632812 148.332031 C 42.601562 148.351562 41.570312 148.351562 40.539062 148.332031 C 40.085938 148.332031 39.898438 148.125 39.84375 147.695312 C 39.824219 147.488281 39.824219 147.261719 39.824219 147.054688 C 39.804688 144.019531 39.804688 140.945312 39.804688 137.867188 Z M 39.804688 137.867188 "/>
<path style=" stroke:none;fill-rule:nonzero;fill:rgb(22.745098%,21.960784%,26.666668%);fill-opacity:1;" d="M 137.195312 132.617188 C 137.699219 132.617188 138.207031 132.65625 138.695312 132.617188 C 139.238281 132.582031 139.5 132.804688 139.667969 133.273438 C 140.324219 134.960938 141 136.632812 141.675781 138.300781 C 142.257812 139.742188 142.855469 141.1875 143.457031 142.648438 C 143.492188 142.761719 143.585938 142.855469 143.644531 142.949219 C 143.71875 142.835938 143.792969 142.726562 143.851562 142.613281 C 144.636719 140.476562 145.425781 138.335938 146.210938 136.199219 C 146.550781 135.261719 146.90625 134.304688 147.242188 133.367188 C 147.507812 132.675781 147.5625 132.636719 148.3125 132.636719 C 149.363281 132.636719 150.429688 132.636719 151.480469 132.636719 C 152.195312 132.636719 152.324219 132.824219 152.082031 133.460938 C 151.292969 135.429688 150.488281 137.382812 149.679688 139.351562 C 148.238281 142.820312 146.8125 146.304688 145.351562 149.773438 C 144.863281 150.917969 144.242188 152.007812 143.34375 152.945312 C 142.425781 153.882812 141.300781 154.40625 139.988281 154.554688 C 139.144531 154.667969 138.261719 154.632812 137.398438 154.613281 C 136.820312 154.59375 136.6875 154.445312 136.667969 153.863281 C 136.648438 153.148438 136.648438 152.4375 136.667969 151.726562 C 136.6875 151.199219 136.820312 151.105469 137.363281 151.070312 C 137.886719 151.03125 138.429688 151.050781 138.9375 150.9375 C 140.644531 150.582031 141.542969 148.835938 140.886719 147.320312 C 138.957031 142.894531 137.023438 138.46875 135.09375 134.0625 C 134.980469 133.820312 134.867188 133.574219 134.792969 133.332031 C 134.679688 132.882812 134.832031 132.675781 135.320312 132.65625 C 135.976562 132.601562 136.574219 132.617188 137.195312 132.617188 Z M 137.195312 132.617188 "/>
<path style=" stroke:none;fill-rule:nonzero;fill:rgb(22.745098%,21.960784%,26.666668%);fill-opacity:1;" d="M 69.414062 148.761719 C 65.25 148.78125 62.230469 146.363281 61.179688 143.195312 C 60 139.632812 61.332031 135.710938 64.40625 133.6875 C 65.867188 132.730469 67.519531 132.320312 69.28125 132.28125 C 71.53125 132.226562 73.574219 132.730469 75.335938 134.117188 C 77.269531 135.636719 78.242188 137.605469 78.355469 139.96875 C 78.449219 142.011719 77.886719 143.886719 76.613281 145.539062 C 75.355469 147.167969 73.648438 148.144531 71.570312 148.539062 C 70.855469 148.648438 70.144531 148.6875 69.414062 148.761719 Z M 73.6875 140.492188 C 73.613281 139.914062 73.59375 139.332031 73.445312 138.769531 C 72.917969 136.78125 71.738281 135.824219 69.75 135.695312 C 67.875 135.582031 66.335938 136.480469 65.757812 138.375 C 65.25 139.988281 65.269531 141.582031 65.945312 143.175781 C 66.582031 144.65625 67.820312 145.386719 69.429688 145.445312 C 71.007812 145.5 72.226562 144.804688 72.957031 143.476562 C 73.460938 142.539062 73.667969 141.542969 73.6875 140.492188 Z M 73.6875 140.492188 "/>
<path style=" stroke:none;fill-rule:nonzero;fill:rgb(22.745098%,21.960784%,26.666668%);fill-opacity:1;" d="M 118.554688 141.414062 C 116.792969 141.414062 115.050781 141.414062 113.289062 141.414062 C 112.78125 141.414062 112.6875 141.414062 112.800781 141.957031 C 113.175781 143.625 114.132812 144.882812 115.929688 145.3125 C 117.804688 145.761719 119.457031 145.367188 120.75 143.925781 C 121.332031 143.269531 121.632812 143.210938 122.363281 143.699219 C 122.792969 144 123.226562 144.28125 123.617188 144.617188 C 124.144531 145.03125 124.164062 145.21875 123.789062 145.761719 C 122.644531 147.394531 121.050781 148.367188 119.023438 148.667969 C 117.46875 148.894531 115.914062 148.820312 114.375 148.5 C 112.070312 148.011719 110.363281 146.679688 109.273438 144.730469 C 107.511719 141.601562 108 137.457031 110.230469 134.90625 C 111.65625 133.273438 113.492188 132.394531 115.726562 132.320312 C 116.886719 132.28125 118.050781 132.242188 119.195312 132.542969 C 121.742188 133.238281 123.355469 134.886719 124.257812 137.195312 C 124.6875 138.28125 124.875 139.445312 124.800781 140.605469 C 124.761719 141.261719 124.59375 141.429688 123.882812 141.429688 C 122.117188 141.429688 120.335938 141.414062 118.554688 141.414062 Z M 116.550781 138.675781 C 117.636719 138.675781 118.726562 138.675781 119.8125 138.675781 C 120.355469 138.675781 120.394531 138.636719 120.28125 138.132812 C 119.925781 136.613281 119.0625 135.414062 117.039062 135.261719 C 114.695312 135.09375 113.324219 136.425781 112.949219 138.261719 C 112.894531 138.5625 112.949219 138.675781 113.304688 138.675781 C 114.375 138.675781 115.460938 138.675781 116.550781 138.675781 Z M 116.550781 138.675781 "/>
<path style=" stroke:none;fill-rule:nonzero;fill:rgb(22.745098%,21.960784%,26.666668%);fill-opacity:1;" d="M 127.648438 137.851562 C 127.648438 134.757812 127.648438 131.664062 127.648438 128.570312 C 127.648438 128.417969 127.632812 128.25 127.648438 128.101562 C 127.6875 127.648438 127.914062 127.40625 128.382812 127.386719 C 129.414062 127.367188 130.445312 127.367188 131.476562 127.386719 C 132.019531 127.40625 132.207031 127.613281 132.242188 128.117188 C 132.261719 128.324219 132.242188 128.550781 132.242188 128.757812 C 132.242188 134.867188 132.242188 140.980469 132.242188 147.074219 C 132.242188 148.273438 132.167969 148.351562 130.929688 148.351562 C 130.179688 148.351562 129.429688 148.351562 128.679688 148.351562 C 127.875 148.351562 127.648438 148.144531 127.648438 147.355469 C 127.648438 144.207031 127.648438 141.039062 127.648438 137.851562 Z M 127.648438 137.851562 "/>
<path style=" stroke:none;fill-rule:nonzero;fill:rgb(100%,100%,100%);fill-opacity:1;" d="M 115.59375 63.28125 C 116.925781 64.257812 118.238281 65.269531 119.550781 66.242188 C 120.320312 66.824219 120.75 67.574219 120.75 68.511719 C 120.730469 69.824219 119.90625 70.742188 118.800781 71.023438 C 118.332031 71.136719 117.84375 71.117188 117.355469 71.136719 C 116.851562 71.15625 116.851562 71.136719 116.851562 71.644531 C 116.851562 77.773438 116.851562 83.90625 116.851562 90.039062 C 116.851562 90.695312 116.8125 91.351562 116.644531 92.007812 C 116.101562 93.917969 114.9375 95.363281 113.210938 96.355469 C 112.070312 97.011719 110.832031 97.292969 109.5 97.292969 C 105.113281 97.292969 100.707031 97.292969 96.320312 97.292969 C 91.949219 97.292969 87.5625 97.273438 83.195312 97.292969 C 81.636719 97.292969 80.230469 96.863281 78.976562 95.960938 C 77.398438 94.855469 76.40625 93.355469 76.105469 91.480469 C 76.03125 90.976562 75.992188 90.46875 75.992188 89.960938 C 75.992188 84.09375 75.992188 78.207031 75.992188 72.335938 C 75.992188 72.054688 75.992188 71.757812 75.992188 71.476562 C 75.992188 71.136719 75.992188 71.136719 75.65625 71.136719 C 75.054688 71.117188 74.457031 71.15625 73.855469 70.96875 C 72.917969 70.667969 72.148438 69.5625 72.132812 68.644531 C 72.113281 67.5 72.675781 66.65625 73.539062 66 C 75.226562 64.707031 76.949219 63.449219 78.65625 62.175781 C 81.242188 60.261719 83.8125 58.332031 86.398438 56.417969 C 88.875 54.582031 91.367188 52.726562 93.863281 50.886719 C 94.144531 50.679688 94.425781 50.4375 94.742188 50.269531 C 96.054688 49.539062 97.332031 49.613281 98.53125 50.476562 C 100.292969 51.75 102.019531 53.0625 103.742188 54.355469 C 105.207031 55.445312 106.667969 56.53125 108.113281 57.636719 Z M 115.59375 63.28125 "/>
<path style=" stroke:none;fill-rule:nonzero;fill:rgb(15.294118%,67.450982%,45.09804%);fill-opacity:1;" d="M 102.730469 77.382812 C 105.039062 77.382812 107.363281 77.382812 109.667969 77.382812 C 110.476562 77.382812 111.054688 77.757812 111.355469 78.449219 C 111.882812 79.648438 110.960938 80.773438 109.800781 80.886719 C 109.726562 80.886719 109.632812 80.886719 109.554688 80.886719 C 105 80.886719 100.445312 80.886719 95.867188 80.886719 C 95.175781 80.886719 94.648438 80.605469 94.273438 80.042969 C 93.917969 79.5 93.882812 78.898438 94.164062 78.320312 C 94.460938 77.699219 95.007812 77.363281 95.738281 77.363281 C 98.0625 77.382812 100.40625 77.382812 102.730469 77.382812 Z M 102.730469 77.382812 "/>
<path style=" stroke:none;fill-rule:nonzero;fill:rgb(15.294118%,67.450982%,45.09804%);fill-opacity:1;" d="M 102.710938 86.417969 C 105.019531 86.417969 107.34375 86.417969 109.648438 86.417969 C 110.773438 86.417969 111.542969 87.207031 111.488281 88.292969 C 111.449219 89.117188 110.699219 89.851562 109.820312 89.925781 C 109.726562 89.945312 109.613281 89.925781 109.519531 89.925781 C 105.019531 89.925781 100.519531 89.925781 96.019531 89.925781 C 95.195312 89.925781 94.554688 89.625 94.179688 88.875 C 93.601562 87.730469 94.445312 86.417969 95.738281 86.417969 C 98.0625 86.417969 100.386719 86.417969 102.710938 86.417969 Z M 102.710938 86.417969 "/>
<path style=" stroke:none;fill-rule:nonzero;fill:rgb(15.294118%,67.450982%,45.09804%);fill-opacity:1;" d="M 102.710938 71.757812 C 100.40625 71.757812 98.082031 71.757812 95.773438 71.757812 C 94.988281 71.757812 94.332031 71.269531 94.070312 70.519531 C 93.84375 69.882812 94.085938 69.09375 94.667969 68.625 C 94.988281 68.363281 95.382812 68.230469 95.792969 68.230469 C 100.40625 68.230469 105 68.230469 109.613281 68.230469 C 110.738281 68.230469 111.300781 68.980469 111.449219 69.617188 C 111.636719 70.460938 111.167969 71.289062 110.289062 71.625 C 110.042969 71.71875 109.78125 71.738281 109.519531 71.738281 C 107.25 71.757812 104.980469 71.757812 102.710938 71.757812 Z M 102.710938 71.757812 "/>
<path style=" stroke:none;fill-rule:nonzero;fill:rgb(15.294118%,67.450982%,45.09804%);fill-opacity:1;" d="M 81.601562 79.3125 C 81.5625 78.710938 81.824219 78.335938 82.3125 78.132812 C 82.835938 77.90625 83.324219 77.980469 83.738281 78.355469 C 84.1875 78.769531 84.601562 79.21875 85.03125 79.648438 C 85.125 79.742188 85.21875 79.855469 85.332031 79.949219 C 85.425781 80.042969 85.460938 80.023438 85.554688 79.929688 C 86.757812 78.582031 87.957031 77.25 89.15625 75.898438 C 89.269531 75.769531 89.398438 75.617188 89.53125 75.507812 C 90.148438 75.019531 90.824219 75.039062 91.425781 75.523438 C 91.929688 75.957031 91.929688 76.820312 91.480469 77.304688 C 90.695312 78.167969 89.925781 79.050781 89.136719 79.929688 C 88.3125 80.851562 87.488281 81.769531 86.679688 82.6875 C 86.136719 83.304688 85.21875 83.53125 84.507812 82.78125 C 83.664062 81.898438 82.820312 81.039062 81.957031 80.175781 C 81.695312 79.929688 81.5625 79.632812 81.601562 79.3125 Z M 81.601562 79.3125 "/>
<path style=" stroke:none;fill-rule:nonzero;fill:rgb(15.294118%,67.450982%,45.09804%);fill-opacity:1;" d="M 91.820312 67.386719 C 91.875 67.742188 91.648438 68.023438 91.40625 68.304688 C 90.335938 69.488281 89.25 70.667969 88.179688 71.851562 C 87.710938 72.375 87.242188 72.898438 86.773438 73.445312 C 86.4375 73.835938 86.0625 74.082031 85.519531 74.042969 C 85.164062 74.023438 84.882812 73.929688 84.636719 73.6875 C 83.738281 72.769531 82.820312 71.851562 81.9375 70.894531 C 81.1875 70.085938 81.5625 68.980469 82.648438 68.773438 C 83.117188 68.679688 83.53125 68.851562 83.867188 69.1875 C 84.335938 69.65625 84.789062 70.144531 85.257812 70.632812 C 85.5 70.875 85.5 70.875 85.742188 70.613281 C 86.925781 69.300781 88.085938 67.988281 89.269531 66.695312 C 89.53125 66.414062 89.773438 66.132812 90.1875 66.039062 C 91.070312 65.886719 91.820312 66.449219 91.820312 67.386719 Z M 91.820312 67.386719 "/>
<path style=" stroke:none;fill-rule:nonzero;fill:rgb(15.294118%,67.450982%,45.09804%);fill-opacity:1;" d="M 82.855469 87.09375 C 83.289062 87.09375 83.625 87.261719 83.90625 87.542969 C 84.335938 87.992188 84.769531 88.445312 85.199219 88.894531 C 85.460938 89.175781 85.460938 89.175781 85.707031 88.894531 C 86.925781 87.523438 88.164062 86.15625 89.382812 84.789062 C 90.019531 84.074219 90.898438 84.148438 91.386719 84.601562 C 91.894531 85.070312 92.007812 85.761719 91.574219 86.324219 C 91.144531 86.886719 90.65625 87.394531 90.1875 87.917969 C 89.007812 89.230469 87.824219 90.523438 86.644531 91.820312 C 86.117188 92.417969 85.238281 92.511719 84.695312 91.988281 C 83.738281 91.050781 82.800781 90.09375 81.898438 89.117188 C 81.355469 88.539062 81.507812 87.636719 82.164062 87.242188 C 82.367188 87.1875 82.613281 87.167969 82.855469 87.09375 Z M 82.855469 87.09375 "/>
</g>
</svg>
