<?xml version="1.0" encoding="utf-8"?>
<!-- Generator: Adobe Illustrator 24.1.2, SVG Export Plug-In . SVG Version: 6.00 Build 0)  -->
<svg version="1.1" id="Capa_1" xmlns="http://www.w3.org/2000/svg" xmlns:xlink="http://www.w3.org/1999/xlink" x="0px" y="0px"
	 viewBox="0 0 800 335.3" style="enable-background:new 0 0 800 335.3;" xml:space="preserve">
<style type="text/css">
	.st0{fill:#3A3945;}
	.st1{fill:#2AAD74;}
	.st2{fill:#FFFFFF;}
</style>
<g>
	<g>
		<path class="st0" d="M484.5,172.6c0-7.7,0.1-15.3-0.1-23c-0.1-2.8,1.2-3.9,3.8-3.7c2.9,0.2,5.9,0,8.8,0.1c2,0.1,2.3,0.3,2.3,2.2
			c0.1,1.1,0,2.4,0,3.5c0,0.5,0.2,0.6,0.6,0.3c0.6-0.6,1.3-1.3,2-2c6.1-6.5,17.2-6.2,22.9-3.5c2.2,1.1,4.1,2.6,5.7,4.4
			c1.6,1.9,1.7,1.9,3.3,0.1c2.7-2.9,6-4.9,10-5.7c5.4-1.1,10.7-1,15.9,1c5.7,2.2,8.2,6.9,9.6,12.3c0.4,1.8,0.6,3.7,0.6,5.6
			c0.1,10.6,0.1,21.3,0,31.9c0,3.1-0.5,3.6-3.8,3.6c-2.6,0-5.1,0-7.7,0c-3.1,0-4-0.8-4-3.9c0-5.6,0-11.2,0-16.7
			c0-4.5,0.1-9-0.1-13.5c-0.1-4.5-2.7-7.7-6.8-8.6c-6.2-1.3-11.9,2.6-12.6,8.6c-0.1,1.3-0.1,2.5-0.1,3.8c0,8.6,0,17.3,0,25.9
			c0,0.6,0.1,1.3-0.1,1.9c-0.3,1.6-1.1,2.4-2.9,2.4c-3.3,0.1-6.6,0.1-10,0c-1.6-0.1-2.6-1-2.9-2.4c-0.1-0.7-0.1-1.5-0.1-2.2
			c0-8.9,0-17.8-0.1-26.8c0-1.8-0.1-3.6-0.6-5.3c-1.5-5.6-5.7-6.8-10.7-5.9c-4.2,0.8-7,4-7.5,8.1c-0.1,1-0.1,2-0.1,2.9
			c0,9,0,18,0,27c0,0.7,0,1.5-0.1,2.2c-0.3,1.5-1.1,2.2-2.7,2.3c-3.3,0.1-6.6,0.1-10,0c-2.1-0.1-2.9-1.1-2.9-3.4
			c0-6.1,0-12.3,0-18.4C484.5,176,484.5,174.3,484.5,172.6L484.5,172.6z"/>
		<path class="st0" d="M345.3,163.8c0-10.5,0-21.1,0-31.6c0-0.6-0.1-1.3,0.1-1.9c0.2-1.5,0.8-2.2,2.3-2.2c3.5-0.1,7-0.1,10.5,0
			c1.7,0.1,2.6,0.8,2.6,2.6c0.1,2,0,4,0,5.9c0,5.9,0,11.9,0,17.8c0,1.7,0,1.8,1.9,1.7c8.9,0,17.8,0,26.8,0c1.9,0,1.9-0.1,1.9-2
			c0-7,0-13.9,0-20.8c0-0.6,0-1.3,0-1.9c0.1-2.7,0.7-3.4,3.6-3.4s5.7,0,8.6,0c2.9,0,3.6,0.6,3.6,3.6c0,13.2,0,26.5,0,39.7
			c0,8.1-0.1,16.2,0.1,24.3c0.1,2.8-1.2,4-4,3.8c-2.6-0.2-5.3-0.2-8,0c-2.6,0.2-3.8-1.3-3.8-3.8c0.2-7.9,0.1-15.8,0.1-23.8
			c0-2.7,0-2.7-2.9-2.7c-8.4,0-16.9,0-25.4,0c-2.6,0-2.3-0.1-2.3,2.1c0,7.9,0,15.8,0,23.8c0,0.7,0.1,1.5-0.1,2.2
			c-0.3,1.3-1.1,2.1-2.6,2.1c-3.5,0.1-7,0.1-10.5,0c-1.5,0-2.2-0.7-2.4-2.2c-0.1-0.7-0.1-1.5-0.1-2.2
			C345.3,184.8,345.3,174.3,345.3,163.8z"/>
		<path class="st0" d="M677.1,145.9c1.7,0,3.4,0.1,5.1,0c1.9-0.1,2.7,0.6,3.3,2.2c2.2,5.7,4.5,11.4,6.8,17.1c2,4.9,4,9.8,6.1,14.8
			c0.1,0.4,0.4,0.7,0.6,1c0.3-0.4,0.5-0.8,0.7-1.1c2.7-7.3,5.4-14.6,8-21.8c1.1-3.2,2.4-6.5,3.5-9.6c0.9-2.4,1.1-2.5,3.6-2.5
			c3.6,0,7.2,0,10.8,0c2.4,0,2.9,0.6,2,2.8c-2.7,6.7-5.4,13.4-8.2,20.1c-4.9,11.8-9.8,23.7-14.8,35.5c-1.7,3.9-3.8,7.6-6.8,10.8
			c-3.1,3.2-7,5-11.4,5.5c-2.9,0.4-5.9,0.3-8.8,0.2c-2-0.1-2.4-0.6-2.5-2.6c-0.1-2.4-0.1-4.9,0-7.3c0.1-1.8,0.5-2.1,2.4-2.2
			c1.8-0.1,3.6-0.1,5.4-0.4c5.8-1.2,8.9-7.2,6.6-12.3c-6.6-15.1-13.2-30.2-19.7-45.2c-0.4-0.8-0.8-1.7-1-2.5
			c-0.4-1.5,0.1-2.2,1.8-2.3C672.9,145.9,675,145.9,677.1,145.9z"/>
		<path class="st0" d="M446.2,200.9c-14.2,0.1-24.5-8.2-28-19c-4-12.1,0.5-25.5,11-32.4c5-3.3,10.6-4.7,16.6-4.8
			c7.7-0.2,14.6,1.5,20.6,6.3c6.6,5.2,9.9,11.9,10.3,19.9c0.3,7-1.6,13.4-5.9,19c-4.3,5.6-10.1,8.9-17.2,10.2
			C451.1,200.5,448.7,200.7,446.2,200.9z M460.7,172.7c-0.3-2-0.3-4-0.8-5.9c-1.8-6.8-5.8-10-12.6-10.5c-6.4-0.4-11.6,2.7-13.6,9.1
			c-1.7,5.5-1.7,10.9,0.6,16.4c2.2,5,6.4,7.5,11.9,7.7c5.4,0.2,9.5-2.2,12-6.7C460,179.7,460.7,176.3,460.7,172.7z"/>
		<path class="st0" d="M613.6,175.9c-6,0-11.9,0-17.9,0c-1.7,0-2,0-1.7,1.9c1.3,5.7,4.5,10,10.7,11.4c6.4,1.5,12,0.2,16.4-4.7
			c2-2.2,3-2.4,5.5-0.8c1.5,1,2.9,2,4.3,3.1c1.8,1.4,1.9,2,0.6,3.9c-3.9,5.6-9.3,8.9-16.2,9.9c-5.3,0.8-10.6,0.5-15.8-0.6
			c-7.9-1.7-13.7-6.2-17.4-12.8c-6-10.7-4.3-24.8,3.3-33.5c4.9-5.6,11.1-8.6,18.7-8.8c4-0.1,7.9-0.3,11.8,0.8
			c8.7,2.4,14.2,8,17.2,15.8c1.5,3.7,2.1,7.7,1.9,11.6c-0.1,2.2-0.7,2.8-3.1,2.8C625.7,175.9,619.7,175.9,613.6,175.9L613.6,175.9z
			 M606.8,166.6L606.8,166.6c3.7,0,7.4,0,11.1,0c1.9,0,2-0.1,1.6-1.9c-1.2-5.2-4.2-9.3-11.1-9.8c-8-0.6-12.6,4-13.9,10.2
			c-0.2,1,0,1.4,1.2,1.4C599.4,166.6,603.1,166.6,606.8,166.6z"/>
		<path class="st0" d="M644.6,163.7c0-10.5,0-21.1,0-31.6c0-0.5-0.1-1.1,0-1.6c0.1-1.5,0.9-2.4,2.5-2.4c3.5-0.1,7-0.1,10.5,0
			c1.9,0.1,2.5,0.8,2.6,2.5c0.1,0.7,0,1.5,0,2.2c0,20.8,0,41.6,0,62.4c0,4.1-0.3,4.3-4.5,4.3c-2.6,0-5.1,0-7.7,0
			c-2.7,0-3.5-0.7-3.5-3.4C644.6,185.4,644.6,174.6,644.6,163.7L644.6,163.7z"/>
	</g>
</g>
<g>
	<path class="st1" d="M223.6,264.7h-89.7c-29.3,0-52.9-23.7-52.9-52.9v-86.4c0-29.3,23.7-52.9,52.9-52.9h89.7
		c29.3,0,52.9,23.7,52.9,52.9v86.4C276.6,241,252.8,264.7,223.6,264.7z"/>
	<g>
		<g>
			<path class="st2" d="M226.7,137.2c3.3,2.4,6.6,5,9.9,7.4c1.9,1.5,3,3.3,3,5.7c0,3.3-2.1,5.6-4.9,6.3c-1.2,0.3-2.4,0.2-3.6,0.3
				c-1.3,0-1.3,0-1.3,1.3c0,15.3,0,30.7,0,46c0,1.6-0.1,3.3-0.5,4.9c-1.4,4.8-4.3,8.4-8.6,10.9c-2.9,1.6-6,2.3-9.3,2.3
				c-11,0-22,0-33,0c-10.9,0-21.9,0-32.8,0c-3.9,0-7.4-1.1-10.6-3.3c-3.9-2.8-6.4-6.5-7.2-11.2c-0.2-1.3-0.3-2.5-0.3-3.8
				c0-14.7,0-29.4,0-44.1c0-0.7,0-1.5,0-2.2c0-0.8,0-0.8-0.8-0.8c-1.5,0-3,0-4.5-0.4c-2.3-0.8-4.3-3.5-4.3-5.8c0-2.9,1.4-5,3.5-6.6
				c4.2-3.2,8.5-6.4,12.8-9.6c6.5-4.8,12.9-9.6,19.4-14.4c6.2-4.6,12.4-9.2,18.7-13.8c0.7-0.5,1.4-1.1,2.2-1.5
				c3.3-1.8,6.5-1.6,9.5,0.5c4.4,3.2,8.7,6.5,13,9.7c3.7,2.7,7.3,5.4,10.9,8.2L226.7,137.2z"/>
			<g>
				<path class="st1" d="M194.5,172.4c5.8,0,11.6,0,17.3,0c2,0,3.5,0.9,4.2,2.7c1.3,3-1,5.8-3.9,6.1c-0.2,0-0.4,0-0.6,0
					c-11.4,0-22.8,0-34.2,0c-1.7,0-3-0.7-4-2.1c-0.9-1.4-1-2.9-0.3-4.3c0.8-1.5,2.1-2.4,3.9-2.4
					C182.8,172.4,188.7,172.4,194.5,172.4L194.5,172.4z"/>
				<path class="st1" d="M194.5,195c5.8,0,11.6,0,17.3,0c2.8,0,4.7,2,4.6,4.7c-0.1,2.1-2,3.9-4.2,4.1c-0.2,0-0.5,0-0.8,0
					c-11.3,0-22.5,0-33.8,0c-2.1,0-3.7-0.8-4.6-2.6c-1.5-2.9,0.7-6.1,3.9-6.1C182.8,195,188.7,195,194.5,195z"/>
				<path class="st1" d="M194.5,158.4c-5.8,0-11.6,0-17.3,0c-2,0-3.6-1.2-4.3-3.1c-0.6-1.6,0-3.6,1.5-4.7c0.8-0.7,1.8-1,2.8-1
					c11.5,0,23,0,34.6,0c2.8,0,4.2,1.9,4.6,3.5c0.5,2.1-0.7,4.2-2.9,5c-0.6,0.2-1.3,0.3-1.9,0.3
					C205.8,158.4,200.1,158.4,194.5,158.4L194.5,158.4z"/>
				<path class="st1" d="M141.7,177.2c-0.1-1.5,0.6-2.4,1.8-3c1.3-0.6,2.5-0.4,3.6,0.6c1.1,1,2.2,2.2,3.2,3.2
					c0.2,0.2,0.5,0.5,0.8,0.8c0.2,0.2,0.3,0.2,0.6,0c3-3.4,6-6.7,9-10.1c0.3-0.3,0.6-0.7,0.9-1c1.5-1.2,3.2-1.2,4.7,0
					c1.3,1.1,1.3,3.2,0.1,4.5c-2,2.2-3.9,4.4-5.9,6.6c-2.1,2.3-4.1,4.6-6.1,6.9c-1.4,1.5-3.7,2.1-5.4,0.2c-2.1-2.2-4.2-4.4-6.4-6.5
					C141.9,178.8,141.6,178,141.7,177.2z"/>
				<path class="st1" d="M167.2,147.4c0.1,0.9-0.4,1.6-1,2.3c-2.7,3-5.4,5.9-8.1,8.9c-1.2,1.3-2.3,2.6-3.5,4c-0.8,1-1.8,1.6-3.1,1.5
					c-0.9,0-1.6-0.3-2.2-0.9c-2.3-2.3-4.5-4.6-6.8-7c-1.9-2-0.9-4.8,1.8-5.3c1.2-0.2,2.2,0.2,3,1c1.2,1.2,2.3,2.4,3.5,3.6
					c0.6,0.6,0.6,0.6,1.2,0c3-3.3,5.9-6.6,8.8-9.8c0.7-0.7,1.3-1.4,2.3-1.6C165.4,143.7,167.2,145.1,167.2,147.4z"/>
				<path class="st1" d="M144.8,196.7c1.1,0,1.9,0.4,2.6,1.1c1.1,1.1,2.2,2.3,3.2,3.4c0.7,0.7,0.7,0.7,1.3,0c3-3.4,6.1-6.8,9.2-10.3
					c1.6-1.8,3.8-1.6,5-0.5c1.3,1.2,1.5,2.9,0.5,4.3c-1.1,1.4-2.3,2.7-3.5,4c-3,3.3-5.9,6.5-8.9,9.8c-1.3,1.5-3.5,1.7-4.9,0.4
					c-2.4-2.3-4.7-4.7-7-7.2c-1.4-1.5-1-3.7,0.7-4.7C143.6,196.9,144.2,196.9,144.8,196.7z"/>
			</g>
		</g>
	</g>
</g>
</svg>
