<?xml version="1.0" encoding="utf-8"?>
<!-- Generator: Adobe Illustrator 24.1.2, SVG Export Plug-In . SVG Version: 6.00 Build 0)  -->
<svg version="1.1" id="Capa_1" xmlns="http://www.w3.org/2000/svg" xmlns:xlink="http://www.w3.org/1999/xlink" x="0px" y="0px"
	 viewBox="0 0 1024 1024" style="enable-background:new 0 0 1024 1024;" xml:space="preserve">
<style type="text/css">
	.st0{fill:#27AC73;}
	.st1{fill:#3A3844;}
	.st2{fill:#FFFFFF;}
</style>
<g>
	<path class="st0" d="M609.9,609.5H418.6c-62.4,0-112.9-50.6-112.9-112.9V312.4c0-62.4,50.6-112.9,112.9-112.9h191.4
		c62.4,0,112.9,50.6,112.9,112.9v184.2C722.9,558.9,672.3,609.5,609.9,609.5z"/>
	<g>
		<g>
			<path class="st1" d="M430.2,749c0-12,0.1-24-0.1-36c-0.1-4.4,1.9-6.1,6-5.8c4.6,0.3,9.2,0,13.8,0.1c3.1,0.1,3.6,0.5,3.6,3.5
				c0.1,1.8,0,3.7,0,5.5c0,0.8,0.3,1,0.9,0.4c1-1,2.1-2,3.1-3.1c9.5-10.1,27-9.7,35.9-5.5c3.5,1.7,6.4,4,8.9,6.9
				c2.5,2.9,2.6,2.9,5.2,0.2c4.3-4.5,9.4-7.7,15.7-9c8.4-1.7,16.8-1.6,24.9,1.5c8.9,3.5,12.9,10.8,15,19.2c0.7,2.8,1,5.8,1,8.8
				c0.1,16.6,0.1,33.3,0,49.9c0,4.9-0.8,5.7-5.9,5.7c-4,0-8,0-12,0c-4.9,0-6.2-1.2-6.2-6.1c0-8.7,0-17.5,0-26.2
				c0-7.1,0.1-14.1-0.1-21.2c-0.2-7-4.3-12-10.7-13.4c-9.7-2.1-18.7,4-19.7,13.5c-0.2,2-0.2,3.9-0.2,5.9c0,13.5,0,27.1,0,40.6
				c0,1,0.1,2-0.1,3c-0.4,2.5-1.8,3.8-4.5,3.8c-5.2,0.1-10.4,0.1-15.6,0c-2.5-0.1-4.1-1.5-4.5-3.8c-0.2-1.1-0.1-2.3-0.1-3.4
				c0-14,0-27.9-0.1-41.9c0-2.8-0.2-5.7-0.9-8.3c-2.3-8.7-8.9-10.7-16.7-9.2c-6.5,1.3-11,6.3-11.8,12.7c-0.2,1.5-0.2,3.1-0.2,4.6
				c0,14.1,0,28.2,0,42.3c0,1.1,0,2.3-0.2,3.4c-0.5,2.3-1.8,3.5-4.2,3.6c-5.2,0.1-10.4,0.1-15.6,0c-3.3-0.1-4.6-1.7-4.6-5.4
				c0-9.6,0-19.2,0-28.8C430.2,754.4,430.2,751.7,430.2,749C430.2,749,430.2,749,430.2,749z"/>
			<path class="st1" d="M212.3,735.3c0-16.5,0-33,0-49.5c0-1-0.1-2,0.1-3c0.3-2.3,1.2-3.4,3.6-3.4c5.5-0.1,11-0.1,16.5,0
				c2.7,0.1,4,1.3,4.1,4c0.2,3.1,0,6.2,0,9.3c0,9.3,0,18.6,0,27.9c0,2.7,0,2.8,3,2.7c14,0,27.9,0,41.9,0c2.9,0,3-0.1,3-3.1
				c0-10.9,0-21.7,0-32.6c0-1,0-2,0-3c0.2-4.3,1.1-5.3,5.6-5.3c4.5,0,8.9,0,13.4,0c4.6,0,5.6,1,5.6,5.6c0,20.7,0,41.5,0,62.2
				c0,12.7-0.1,25.4,0.1,38.1c0.1,4.4-1.9,6.3-6.3,6c-4.1-0.3-8.3-0.3-12.5,0c-4.1,0.3-6-2-5.9-5.9c0.3-12.4,0.1-24.8,0.1-37.2
				c0-4.2,0-4.2-4.5-4.2c-13.2,0-26.5,0-39.7,0c-4.1,0-3.6-0.2-3.6,3.3c0,12.4,0,24.8,0,37.2c0,1.1,0.1,2.3-0.1,3.4
				c-0.4,2-1.8,3.3-4,3.3c-5.5,0.1-11,0.1-16.5,0c-2.4,0-3.4-1.1-3.7-3.4c-0.1-1.1-0.1-2.3-0.1-3.4
				C212.3,768.1,212.3,751.7,212.3,735.3z"/>
			<path class="st1" d="M731.7,707.3c2.7,0,5.4,0.2,8,0c2.9-0.2,4.3,1,5.2,3.5c3.5,9,7.1,17.9,10.7,26.8c3.1,7.7,6.3,15.4,9.5,23.2
				c0.2,0.6,0.7,1.1,1,1.6c0.4-0.6,0.8-1.2,1.1-1.8c4.2-11.4,8.4-22.8,12.6-34.2c1.8-5,3.7-10.1,5.5-15.1c1.4-3.7,1.7-3.9,5.7-3.9
				c5.6,0,11.3,0,16.9,0c3.8,0,4.5,1,3.2,4.4c-4.2,10.5-8.5,20.9-12.8,31.4c-7.7,18.5-15.3,37.1-23.1,55.6
				c-2.6,6.1-5.9,11.9-10.7,16.9c-4.9,5-10.9,7.8-17.9,8.6c-4.5,0.6-9.2,0.4-13.8,0.3c-3.1-0.1-3.8-0.9-3.9-4
				c-0.1-3.8-0.1-7.6,0-11.4c0.1-2.8,0.8-3.3,3.7-3.5c2.8-0.2,5.7-0.1,8.4-0.7c9.1-1.9,13.9-11.2,10.4-19.3
				c-10.3-23.6-20.6-47.2-30.9-70.7c-0.6-1.3-1.2-2.6-1.6-3.9c-0.6-2.4,0.2-3.5,2.8-3.6C725.2,707.2,728.4,707.3,731.7,707.3z"/>
			<path class="st1" d="M370.2,793.4c-22.2,0.1-38.3-12.8-43.9-29.7c-6.3-19,0.8-39.9,17.2-50.7c7.8-5.1,16.6-7.3,26-7.5
				c12-0.3,22.9,2.4,32.3,9.8c10.3,8.1,15.5,18.6,16.1,31.2c0.5,10.9-2.5,20.9-9.3,29.7c-6.7,8.7-15.8,13.9-26.9,16
				C377.9,792.8,374.1,793,370.2,793.4z M393,749.3c-0.4-3.1-0.5-6.2-1.3-9.2c-2.8-10.6-9.1-15.7-19.7-16.4
				c-10-0.6-18.2,4.2-21.3,14.3c-2.7,8.6-2.6,17.1,1,25.6c3.4,7.9,10,11.8,18.6,12.1c8.4,0.3,14.9-3.4,18.8-10.5
				C391.8,760.2,392.9,754.9,393,749.3z"/>
			<path class="st1" d="M632.3,754.2c-9.4,0-18.7,0-28.1,0c-2.7,0-3.2,0-2.6,2.9c2,8.9,7.1,15.6,16.7,17.9c10,2.4,18.8,0.3,25.7-7.4
				c3.1-3.5,4.7-3.8,8.6-1.2c2.3,1.6,4.6,3.1,6.7,4.9c2.8,2.2,2.9,3.2,0.9,6.1c-6.1,8.7-14.6,13.9-25.4,15.5
				c-8.3,1.2-16.6,0.8-24.8-0.9c-12.3-2.6-21.4-9.7-27.2-20.1c-9.4-16.7-6.8-38.8,5.1-52.4c7.6-8.7,17.4-13.4,29.3-13.8
				c6.2-0.2,12.4-0.4,18.5,1.2c13.6,3.7,22.2,12.5,27,24.8c2.3,5.8,3.3,12,2.9,18.2c-0.2,3.5-1.1,4.4-4.9,4.4
				C651.3,754.3,641.8,754.2,632.3,754.2C632.3,754.2,632.3,754.2,632.3,754.2z M621.6,739.6C621.6,739.6,621.6,739.6,621.6,739.6
				c5.8,0,11.6,0,17.4,0c2.9,0,3.1-0.2,2.5-2.9c-1.9-8.1-6.5-14.5-17.3-15.3c-12.5-0.9-19.8,6.2-21.8,16c-0.3,1.6,0,2.2,1.9,2.2
				C610,739.6,615.8,739.6,621.6,739.6z"/>
			<path class="st1" d="M680.8,735.2c0-16.5,0-33,0-49.5c0-0.8-0.1-1.7,0-2.5c0.2-2.4,1.4-3.7,3.9-3.8c5.5-0.1,11-0.1,16.5,0
				c2.9,0.1,3.9,1.2,4.1,3.9c0.1,1.1,0,2.3,0,3.4c0,32.6,0,65.2,0,97.7c0,6.4-0.4,6.8-7,6.8c-4,0-8,0-12,0c-4.3,0-5.5-1.1-5.5-5.3
				C680.8,769.1,680.8,752.2,680.8,735.2C680.8,735.2,680.8,735.2,680.8,735.2z"/>
		</g>
	</g>
	<g>
		<g>
			<path class="st2" d="M616.5,337.5c7.1,5.2,14.1,10.6,21.1,15.8c4.1,3.1,6.4,7.1,6.4,12.1c-0.1,7-4.5,11.9-10.4,13.4
				c-2.5,0.6-5.1,0.5-7.7,0.6c-2.7,0.1-2.7,0-2.7,2.7c0,32.7,0,65.4,0,98.1c0,3.5-0.2,7-1.1,10.5c-2.9,10.2-9.1,17.9-18.3,23.2
				c-6.1,3.5-12.7,5-19.8,5c-23.4,0-46.9,0-70.3,0c-23.3,0-46.7-0.1-70,0c-8.3,0-15.8-2.3-22.5-7.1c-8.4-5.9-13.7-13.9-15.3-23.9
				c-0.4-2.7-0.6-5.4-0.6-8.1c0-31.3,0-62.7,0-94c0-1.5,0-3.1,0-4.6c0-1.8,0-1.8-1.8-1.8c-3.2-0.1-6.4,0.1-9.6-0.9
				c-5-1.6-9.1-7.5-9.2-12.4c-0.1-6.1,2.9-10.6,7.5-14.1c9-6.9,18.2-13.6,27.3-20.4c13.8-10.2,27.5-20.5,41.3-30.7
				c13.2-9.8,26.5-19.7,39.8-29.5c1.5-1.1,3-2.4,4.7-3.3c7-3.9,13.8-3.5,20.2,1.1c9.4,6.8,18.6,13.8,27.8,20.7
				c7.8,5.8,15.6,11.6,23.3,17.5L616.5,337.5z"/>
			<g>
				<path class="st0" d="M547.9,412.7c12.3,0,24.7,0,37,0c4.3,0,7.4,2,9,5.7c2.8,6.4-2.1,12.4-8.3,13c-0.4,0-0.9,0-1.3,0
					c-24.3,0-48.6,0-73,0c-3.7,0-6.5-1.5-8.5-4.5c-1.9-2.9-2.1-6.1-0.6-9.2c1.6-3.3,4.5-5.1,8.4-5.1
					C523,412.7,535.5,412.7,547.9,412.7C547.9,412.7,547.9,412.7,547.9,412.7z"/>
				<path class="st0" d="M547.8,460.9c12.3,0,24.7,0,37,0c6,0,10.1,4.2,9.8,10c-0.2,4.4-4.2,8.3-8.9,8.7c-0.5,0.1-1.1,0-1.6,0
					c-24,0-48,0-72,0c-4.4,0-7.8-1.6-9.8-5.6c-3.1-6.1,1.4-13.1,8.3-13.1C523,460.9,535.4,460.9,547.8,460.9z"/>
				<path class="st0" d="M547.8,382.7c-12.3,0-24.7,0-37,0c-4.2,0-7.7-2.6-9.1-6.6c-1.2-3.4,0.1-7.6,3.2-10.1c1.7-1.4,3.8-2.1,6-2.1
					c24.6,0,49.1,0,73.7,0c6,0,9,4,9.8,7.4c1,4.5-1.5,8.9-6.2,10.7c-1.3,0.5-2.7,0.6-4.1,0.6C572,382.7,559.9,382.7,547.8,382.7
					C547.8,382.7,547.8,382.7,547.8,382.7z"/>
				<path class="st0" d="M435.2,423c-0.2-3.2,1.2-5.2,3.8-6.3c2.8-1.2,5.4-0.8,7.6,1.2c2.4,2.2,4.6,4.6,6.9,6.9
					c0.5,0.5,1,1.1,1.6,1.6c0.5,0.5,0.7,0.4,1.2-0.1c6.4-7.2,12.8-14.3,19.2-21.5c0.6-0.7,1.3-1.5,2-2.1c3.3-2.6,6.9-2.5,10.1,0.1
					c2.7,2.3,2.7,6.9,0.3,9.5c-4.2,4.6-8.3,9.3-12.5,14c-4.4,4.9-8.8,9.8-13.1,14.7c-2.9,3.3-7.8,4.5-11.6,0.5
					c-4.5-4.7-9-9.3-13.6-13.9C435.7,426.3,435,424.7,435.2,423z"/>
				<path class="st0" d="M489.7,359.4c0.3,1.9-0.9,3.4-2.2,4.9c-5.7,6.3-11.5,12.6-17.2,18.9c-2.5,2.8-5,5.6-7.5,8.5
					c-1.8,2.1-3.8,3.4-6.7,3.2c-1.9-0.1-3.4-0.6-4.7-1.9c-4.8-4.9-9.7-9.8-14.4-14.9c-4-4.3-2-10.2,3.8-11.3
					c2.5-0.5,4.7,0.4,6.5,2.2c2.5,2.5,4.9,5.1,7.4,7.7c1.3,1.3,1.3,1.3,2.6-0.1c6.3-7,12.5-14,18.8-20.9c1.4-1.5,2.7-3,4.9-3.5
					C485.7,351.4,489.7,354.4,489.7,359.4z"/>
				<path class="st0" d="M441.9,464.5c2.3,0,4.1,0.9,5.6,2.4c2.3,2.4,4.6,4.8,6.9,7.2c1.4,1.5,1.4,1.5,2.7,0
					c6.5-7.3,13.1-14.6,19.6-21.9c3.4-3.8,8.1-3.4,10.7-1c2.7,2.5,3.3,6.2,1,9.2c-2.3,3-4.9,5.7-7.4,8.5c-6.3,7-12.6,13.9-18.9,20.8
					c-2.8,3.2-7.5,3.7-10.4,0.9c-5.1-5-10.1-10.1-14.9-15.3c-2.9-3.1-2.1-7.9,1.4-10C439.3,465,440.6,464.9,441.9,464.5z"/>
			</g>
		</g>
	</g>
</g>
</svg>
